<?xml version="1.0" encoding="utf-8"?>
<svg version="1.1" id="Слой_1" xmlns="http://www.w3.org/2000/svg" xmlns:xlink="http://www.w3.org/1999/xlink" 
x="0px" y="0px" viewBox="0 0 100 100" enable-background="new 0 0 100 100" xml:space="preserve">
    <g fill="none" stroke="white">
        <ellipse stroke-width="16.7304" stroke-miterlimit="10" cx="50" cy="50" rx="21.7" ry="21.6"/>
    </g>
    <g fill="white" stroke="none">
        <path d="M55.8,30H44.2C43,30,42,29,42,27.8V12.2c0-1.2,1-2.2,2.2-2.2h11.5c1.2,0,2.2,1,2.2,2.2v15.5C58,29,57,30,55.8,30z"/>
        <path d="M55.8,90H44.2C43,90,42,89,42,87.8V72.2c0-1.2,1-2.2,2.2-2.2h11.5c1.2,0,2.2,1,2.2,2.2v15.5C58,89,57,90,55.8,90z"/>
        <path d="M27.8,58H12.2C11,58,10,57,10,55.8V44.2c0-1.2,1-2.2,2.2-2.2h15.5c1.2,0,2.2,1,2.2,2.2v11.5C30,57,29,58,27.8,58z"/>
        <path d="M87.8,58H72.2C71,58,70,57,70,55.8V44.2c0-1.2,1-2.2,2.2-2.2h15.5c1.2,0,2.2,1,2.2,2.2v11.5C90,57,89,58,87.8,58z"/>
        <path d="M40.1,31.9l-8.1,8.1c-0.9,0.9-2.3,0.9-3.2,0l-11-11c-0.9-0.9-0.9-2.3,0-3.2l8.1-8.1c0.9-0.9,2.3-0.9,3.2,0l11,11C40.9,29.6,40.9,31.1,40.1,31.9z"/>
        <path d="M82.4,74.2l-8.1,8.1c-0.9,0.9-2.3,0.9-3.2,0l-11-11c-0.9-0.9-0.9-2.3,0-3.2l8.1-8.1c0.9-0.9,2.3-0.9,3.2,0l11,11C83.2,71.9,83.2,73.4,82.4,74.2z"/>
        <path d="M31.9,59.9l8.1,8.1c0.9,0.9,0.9,2.3,0,3.2l-11,11c-0.9,0.9-2.3,0.9-3.2,0l-8.1-8.1c-0.9-0.9-0.9-2.3,0-3.2l11-11C29.6,59.1,31.1,59.1,31.9,59.9z"/>
        <path d="M74.1,17.8l8.1,8.1c0.9,0.9,0.9,2.3,0,3.2l-11,11c-0.9,0.9-2.3,0.9-3.2,0l-8.1-8.1c-0.9-0.9-0.9-2.3,0-3.2l11-11C71.8,16.9,73.2,16.9,74.1,17.8z"/>
    </g>
</svg>
